<?xml version="1.0" standalone="no"?>
<!DOCTYPE svg PUBLIC "-//W3C//DTD SVG 20010904//EN"
 "http://www.w3.org/TR/2001/REC-SVG-20010904/DTD/svg10.dtd">
<svg version="1.0" xmlns="http://www.w3.org/2000/svg"
 width="177.000000pt" height="177.000000pt" viewBox="0 0 177.000000 177.000000"
 preserveAspectRatio="xMidYMid meet">
<metadata>
Created by potrace 1.11, written by Peter Selinger 2001-2013
</metadata>
<g transform="translate(0.000000,177.000000) scale(0.100000,-0.100000)"
fill="#000000" stroke="none">
<path d="M875 1216 c0 -91 3 -162 6 -158 16 20 50 116 45 129 -5 11 -2 13 11
8 34 -14 48 -15 63 -6 20 13 4 28 -46 46 -37 12 -40 16 -54 79 -8 36 -17 66
-20 66 -3 0 -5 -74 -5 -164z"/>
<path d="M776 1225 c-38 -18 -54 -21 -69 -14 -40 22 -24 -1 63 -86 50 -48 90
-84 90 -79 -1 5 -9 27 -20 49 -11 22 -19 45 -20 52 0 7 -7 16 -16 21 -18 10
-11 32 10 32 8 0 16 11 18 25 6 30 5 30 -56 0z"/>
<path d="M977 1128 c-75 -76 -92 -102 -50 -79 10 6 35 17 56 25 20 8 37 20 37
25 0 18 18 12 25 -8 6 -20 41 -35 50 -21 2 4 -6 28 -18 53 -16 31 -21 52 -15
66 12 34 -3 23 -85 -61z"/>
<path d="M667 1110 c-19 -46 -24 -50 -69 -60 -27 -5 -55 -10 -63 -10 -8 0 -16
-4 -19 -9 -3 -4 69 -8 159 -8 91 0 165 2 165 4 0 9 -115 53 -127 49 -15 -6
-17 12 -4 33 10 16 3 51 -11 51 -5 0 -19 -22 -31 -50z"/>
<path d="M920 1019 c0 -8 98 -49 117 -49 11 0 11 -4 3 -20 -8 -14 -8 -26 0
-40 14 -27 25 -19 45 33 16 43 18 44 81 56 35 7 66 16 68 20 2 3 -67 6 -155 6
-87 0 -159 -3 -159 -6z"/>
<path d="M793 986 c-29 -12 -59 -30 -66 -41 -13 -17 -14 -17 -21 8 -5 20 -13
27 -31 27 -25 0 -25 0 -10 -37 9 -20 20 -42 26 -49 7 -9 7 -19 0 -33 -21 -38
-10 -31 76 53 48 47 85 87 83 89 -3 2 -29 -6 -57 -17z"/>
<path d="M915 943 c12 -32 28 -59 34 -61 18 -6 13 -20 -9 -27 -22 -7 -28 -45
-7 -45 7 0 29 9 50 20 29 16 42 18 57 10 11 -6 20 -7 20 -4 0 10 -153 164
-162 164 -4 0 4 -26 17 -57z"/>
<path d="M842 927 c-12 -29 -22 -58 -22 -65 0 -10 -5 -10 -20 -2 -21 11 -60 5
-60 -9 0 -8 30 -25 71 -40 22 -8 28 -19 39 -73 7 -34 16 -66 19 -70 4 -5 7 64
7 152 1 88 -2 160 -6 160 -3 0 -16 -24 -28 -53z"/>
<path d="M155 559 c-16 -4 -24 -7 -17 -8 11 -1 13 -22 10 -96 l-3 -94 54 3
c42 3 58 9 71 26 23 30 20 62 -7 75 -18 9 -19 13 -7 21 19 12 26 50 11 62 -16
13 -75 19 -112 11z m92 -25 c9 -24 -10 -49 -41 -52 -24 -3 -26 0 -26 32 0 33
2 36 30 36 19 0 33 -6 37 -16z m-2 -76 c1 -2 5 -12 9 -24 8 -26 -12 -52 -44
-56 -22 -3 -25 1 -28 30 -5 50 3 63 34 58 15 -3 28 -6 29 -8z"/>
<path d="M720 560 c-10 -6 -11 -10 -2 -10 16 0 17 -161 1 -177 -9 -9 -4 -12
19 -11 17 1 29 5 26 10 -6 10 -13 58 -8 58 1 0 9 -6 16 -12 55 -51 68 -59 78
-53 7 4 -2 18 -24 37 -43 36 -45 50 -11 68 14 7 25 17 25 22 0 13 -11 9 -46
-17 -18 -14 -34 -25 -36 -25 -2 0 -3 27 -2 60 2 61 -4 71 -36 50z"/>
<path d="M1410 560 c-10 -6 -11 -10 -2 -10 15 0 17 -161 1 -177 -7 -7 -3 -10
14 -10 l25 0 -1 103 c-1 104 -5 115 -37 94z"/>
<path d="M1580 560 c-10 -6 -11 -10 -2 -10 7 0 12 -13 12 -30 0 -22 -4 -28
-15 -24 -23 9 -71 -14 -82 -39 -13 -29 2 -84 26 -92 10 -3 29 -1 42 3 15 6 30
5 41 -2 9 -5 18 -8 20 -6 2 3 2 51 0 108 -3 104 -8 114 -42 92z m10 -123 c0
-52 -33 -73 -64 -41 -22 21 -20 50 4 74 29 29 60 11 60 -33z"/>
<path d="M880 543 c6 -10 18 -53 28 -96 10 -43 22 -79 27 -80 5 -1 22 31 39
72 l30 74 23 -64 c13 -35 26 -70 28 -76 7 -19 25 -16 26 5 0 9 12 54 28 100
l27 82 -26 -1 c-14 0 -20 -3 -14 -5 12 -5 7 -35 -15 -109 -6 -21 -10 -25 -14
-15 -4 8 -16 41 -27 73 -12 31 -25 57 -29 57 -5 0 -19 -28 -31 -62 -13 -35
-26 -67 -30 -71 -4 -4 -13 20 -20 53 -11 53 -11 63 1 71 10 6 2 9 -24 9 -33 0
-36 -2 -27 -17z"/>
<path d="M326 490 c-14 -4 -16 -9 -8 -14 14 -9 16 -88 2 -102 -6 -6 3 -10 26
-11 22 0 31 3 24 7 -16 10 -20 58 -8 83 6 12 17 17 28 14 14 -3 18 0 17 14 -1
22 -2 22 -29 8 -13 -7 -23 -8 -27 -1 -3 5 -15 6 -25 2z"/>
<path d="M446 484 c-22 -21 -31 -64 -19 -83 17 -27 57 -45 86 -37 15 3 27 11
27 17 0 6 -6 6 -17 1 -24 -13 -59 2 -66 27 -4 17 -1 21 21 21 37 0 72 11 72
21 0 18 -41 49 -64 49 -14 0 -32 -7 -40 -16z m59 -7 c24 -19 11 -38 -26 -35
-33 3 -33 2 -19 29 13 23 20 24 45 6z"/>
<path d="M598 489 c-10 -5 -18 -15 -18 -22 0 -8 3 -8 9 1 10 16 53 12 59 -6 2
-7 -9 -15 -27 -18 -34 -7 -63 -38 -54 -60 7 -19 39 -27 63 -14 11 6 20 7 20 2
0 -4 9 -8 20 -9 14 -1 18 2 13 10 -4 7 -8 34 -9 61 -2 62 -30 82 -76 55z m50
-75 c-5 -25 -35 -41 -49 -27 -9 9 -9 16 1 28 17 21 52 20 48 -1z"/>
<path d="M1150 480 c-26 -26 -26 -74 1 -101 28 -28 76 -22 102 12 17 23 18 31
8 62 -17 51 -73 65 -111 27z m72 -7 c32 -29 17 -103 -21 -103 -37 0 -54 44
-35 88 15 36 29 40 56 15z"/>
<path d="M1306 490 c-14 -4 -16 -9 -8 -14 7 -4 12 -30 12 -60 0 -50 2 -53 24
-53 20 0 22 2 12 12 -10 11 -12 32 -7 83 0 8 10 12 22 10 15 -2 23 3 25 15 3
20 -16 23 -34 5 -9 -9 -15 -10 -20 -2 -4 6 -16 8 -26 4z"/>
</g>
</svg>
